<?xml version="1.0" encoding="iso-8859-1"?>
<!-- Uploaded to: SVG Repo, www.svgrepo.com, Generator: SVG Repo Mixer Tools -->
<svg height="800px" width="800px" version="1.1" id="Layer_1" xmlns="http://www.w3.org/2000/svg" xmlns:xlink="http://www.w3.org/1999/xlink" 
	 viewBox="0 0 512 512" xml:space="preserve">
<path style="fill:#BA6B24;" d="M346.277,104.448c47.993,30.093,79.913,83.475,79.913,144.311c0,66.362-37.981,149.94-93.395,193.344
	c-10.88,8.516-10.674,24.91,0.183,33.449c10.252,8.048,19.898,17.467,28.826,27.901H150.194
	c8.927-10.434,18.574-19.853,28.826-27.901c10.868-8.539,11.074-24.933,0.194-33.449c-55.425-43.404-93.407-126.982-93.407-193.344
	c0-60.837,31.92-114.218,79.924-144.311"/>
<path style="fill:#A55C20;" d="M219.826,442.103c-26.11-43.404-44.002-126.982-44.002-193.344
	c0-60.837,15.037-114.218,37.652-144.311h-47.743c-48.005,30.093-79.924,83.475-79.924,144.311
	c0,66.362,37.981,149.94,93.407,193.344c10.88,8.516,10.674,24.91-0.194,33.449c-10.252,8.048-19.898,17.467-28.826,27.901h55.961
	c4.206-10.434,8.75-19.853,13.579-27.901C224.854,467.013,224.951,450.62,219.826,442.103z"/>
<path style="fill:#BA6B24;" d="M346.803,104.38c-46.703,4.213-93.395,5.172-140.087,2.888c-13.836-0.674-27.673-1.644-41.509-2.888
	c10.606-31.531,7.42-61.327-31.748-88.395c26.668-3.231,53.336-5.423,80.016-6.541c55.026-2.317,110.052-0.137,165.077,6.541
	C339.371,43.052,336.197,72.848,346.803,104.38z"/>
<path style="fill:#A55C20;" d="M213.474,104.448l-6.758,2.82c-13.836-0.674-27.673-1.644-41.509-2.888
	c10.606-31.531,7.42-61.327-31.748-88.395c26.668-3.231,53.336-5.423,80.016-6.541C243.133,60.29,213.474,104.448,213.474,104.448z"
	/>
<path d="M338.075,448.826c27.398-21.46,52.235-53.825,69.934-91.133c17.245-36.352,26.743-75.045,26.743-108.951
	c0-30.827-7.976-61.222-23.067-87.901c-2.329-4.116-7.555-5.565-11.668-3.236c-4.116,2.328-5.565,7.552-3.238,11.668
	c12.24,21.637,19.283,45.99,20.603,70.907H176.965c-4.73,0-8.562,3.834-8.562,8.562s3.832,8.562,8.562,8.562h240.427
	c-0.723,14.881-3.284,30.33-7.409,45.779h-62.918c-4.73,0-8.562,3.834-8.562,8.562c0,4.729,3.832,8.562,8.562,8.562h57.728
	c-15.141,44.384-42.431,86.848-75.038,113.317H182.254c-32.611-26.468-59.905-68.933-75.049-113.317h211.32
	c4.73,0,8.562-3.834,8.562-8.562c0-4.729-3.832-8.562-8.562-8.562h-216.51c-4.125-15.448-6.686-30.898-7.409-45.779h53.819
	c4.73,0,8.562-3.834,8.562-8.562s-3.832-8.562-8.562-8.562H94.61c2.687-51.733,29.625-98.553,73.348-126.989
	c29.222,2.526,58.631,3.804,88.044,3.804c29.405,0,58.808-1.276,88.023-3.802c14.727,9.582,27.748,21.395,38.695,35.203
	c1.69,2.133,4.19,3.243,6.715,3.243c1.863,0,3.74-0.606,5.313-1.853c3.706-2.937,4.328-8.324,1.39-12.028
	c-11.905-15.016-26.009-27.928-41.965-38.429c-10.114-32.301-1.284-55.231,29.24-76.317c2.926-2.022,4.299-5.642,3.448-9.095
	c-0.853-3.453-3.75-6.02-7.281-6.449c-82-9.958-165.155-9.959-247.157,0c-3.531,0.429-6.43,2.996-7.281,6.449
	s0.521,7.073,3.448,9.095c30.534,21.091,39.358,44.031,29.231,76.349c-50.523,33.231-80.573,88.764-80.573,149.381
	c0,33.907,9.498,72.601,26.746,108.951c17.702,37.309,42.541,69.674,69.946,91.135c3.031,2.372,4.772,5.941,4.775,9.79
	c0.003,3.982-1.812,7.693-4.979,10.182c-10.455,8.209-20.564,17.99-30.043,29.069c-2.174,2.54-2.67,6.112-1.272,9.148
	c1.398,3.036,4.435,4.981,7.778,4.981h211.61c3.343,0,6.379-1.945,7.778-4.981c1.398-3.036,0.902-6.608-1.272-9.148
	c-9.48-11.079-19.588-20.86-30.038-29.064c-3.166-2.49-4.979-6.202-4.974-10.185C333.301,454.769,335.042,451.201,338.075,448.826z
	 M176.325,96.717c4.222-17.531,3.465-33.195-2.41-47.403c54.531-4.471,109.636-4.471,164.17,0
	c-5.876,14.209-6.633,29.874-2.41,47.403C282.755,100.923,229.245,100.923,176.325,96.717z M357.231,22.212
	c-3.625,3.484-6.827,7.064-9.632,10.744c-60.81-5.476-122.384-5.476-183.197,0.001c-2.805-3.679-6.008-7.26-9.633-10.745
	C222.044,15.425,289.963,15.426,357.231,22.212z M342.065,494.874H169.932c4.695-4.564,9.499-8.777,14.377-12.606
	c7.333-5.762,11.535-14.387,11.526-23.664c-0.002-2.732-0.38-5.401-1.091-7.956h122.52c-0.71,2.554-1.089,5.222-1.092,7.951
	c-0.011,9.277,4.185,17.903,11.518,23.67C332.567,486.098,337.369,490.311,342.065,494.874z"/>
</svg>